<?xml version="1.0" encoding="utf-8"?>
<!-- Uploaded to: SVG Repo, www.svgrepo.com, Generator: SVG Repo Mixer Tools -->
<svg width="800px" height="800px" viewBox="0 0 24 24" fill="none" xmlns="http://www.w3.org/2000/svg">
<g id="style=fill">
<g id="document">
<path id="Subtract" fill-rule="evenodd" clip-rule="evenodd" d="M8 1.25C4.82436 1.25 2.25 3.82436 2.25 7V17C2.25 20.1756 4.82436 22.75 8 22.75H16C19.1756 22.75 21.75 20.1756 21.75 17V7C21.75 3.82436 19.1756 1.25 16 1.25H8ZM8 7.44995C7.58579 7.44995 7.25 7.78574 7.25 8.19995C7.25 8.61416 7.58579 8.94995 8 8.94995H16C16.4142 8.94995 16.75 8.61416 16.75 8.19995C16.75 7.78574 16.4142 7.44995 16 7.44995H8ZM7.25 12.2C7.25 11.7857 7.58579 11.45 8 11.45H16C16.4142 11.45 16.75 11.7857 16.75 12.2C16.75 12.6142 16.4142 12.95 16 12.95H8C7.58579 12.95 7.25 12.6142 7.25 12.2ZM9 15.45C8.58579 15.45 8.25 15.7857 8.25 16.2C8.25 16.6142 8.58579 16.95 9 16.95H15C15.4142 16.95 15.75 16.6142 15.75 16.2C15.75 15.7857 15.4142 15.45 15 15.45H9Z" fill="#000000"/>
</g>
</g>
</svg>