<svg version="1.1" id="Layer_1" xmlns="http://www.w3.org/2000/svg" xmlns:xlink="http://www.w3.org/1999/xlink" x="0px" y="0px"
	 width="100%" viewBox="0 0 264 264" enable-background="new 0 0 264 264" xml:space="preserve">
<path fill="#FDFDFD" opacity="1.000000" stroke="none" 
	d="
M1.000000,103.000000 
	C1.000000,68.666672 1.000000,34.833351 1.000000,1.000018 
	C88.999969,1.000012 176.999939,1.000012 264.999939,1.000006 
	C265.000000,44.999958 265.000000,88.999916 265.000000,132.999878 
	C265.000000,176.999863 265.000000,220.999863 265.000000,264.999878 
	C177.000076,264.999939 89.000145,264.999939 1.000107,264.999969 
	C1.000000,211.166672 1.000000,157.333328 1.000000,103.000000 
M169.368195,82.379570 
	C174.987701,88.144600 180.607193,93.909630 185.820328,99.257774 
	C192.501266,92.814827 198.546997,86.984444 204.066101,81.661926 
	C198.121445,75.379768 192.267075,69.193024 186.070801,62.644974 
	C180.406570,68.430779 174.825424,74.094826 169.318970,79.830566 
	C168.904831,80.261940 169.023346,81.204681 169.368195,82.379570 
M77.825058,197.637039 
	C79.297615,199.629395 80.770172,201.621765 81.690323,202.866730 
	C88.846527,195.950104 94.976395,190.025452 100.590210,184.599579 
	C94.805489,178.510071 89.012497,172.411865 83.762886,166.885666 
	C77.523827,172.937943 71.404488,178.874100 65.106354,184.983673 
	C69.115822,188.974442 73.225945,193.065384 77.825058,197.637039 
M178.153671,21.772669 
	C178.454056,20.397659 178.754440,19.022648 179.087479,17.498169 
	C170.514282,15.203952 162.436401,13.042285 153.954178,10.772416 
	C151.646179,19.447187 149.463440,27.651163 147.201355,36.153397 
	C155.903793,38.465351 164.022079,40.622108 172.494736,42.873013 
	C174.377670,35.929367 176.188736,29.250753 178.153671,21.772669 
M55.076916,71.610626 
	C56.416527,71.737648 58.327896,72.500961 59.005917,71.891716 
	C64.785789,66.698067 70.341675,61.255165 75.490173,56.339878 
	C68.891891,49.451496 62.988880,43.288956 57.578342,37.640541 
	C51.362915,43.647350 45.287277,49.519062 38.765678,55.821766 
	C44.047077,60.917984 49.311947,65.998253 55.076916,71.610626 
M66.011673,200.487213 
	C63.257442,197.618042 60.503208,194.748856 57.940346,192.079025 
	C51.549824,198.403381 45.449409,204.440613 39.954449,209.878677 
	C45.778397,215.919373 51.711216,222.072998 57.506298,228.083755 
	C63.433388,222.208878 69.417160,216.277832 75.687065,210.063156 
	C72.613434,207.031921 69.556274,204.016922 66.011673,200.487213 
M40.180489,171.808792 
	C41.700134,171.297440 43.219776,170.786087 44.949028,170.204208 
	C42.691326,161.789139 40.514614,153.675964 38.217701,145.114746 
	C29.577082,147.428833 21.235628,149.662796 12.825459,151.915176 
	C15.245131,160.807251 17.441994,168.880539 19.707836,177.207306 
	C26.629658,175.368500 33.014008,173.672470 40.180489,171.808792 
M230.802475,117.765373 
	C231.798477,118.476364 232.986450,119.967926 233.760773,119.777496 
	C241.421265,117.893616 249.013214,115.731071 256.863281,113.582077 
	C254.522003,104.921829 252.329910,96.813499 250.036926,88.331932 
	C241.296814,90.685745 233.084854,92.897324 224.721756,95.149605 
	C226.802689,102.873543 228.701508,109.921516 230.802475,117.765373 
M153.286453,227.763763 
	C151.393265,228.286163 149.500061,228.808548 147.260223,229.426590 
	C149.272110,237.147614 151.134018,244.665878 153.295227,252.097122 
	C153.554108,252.987198 155.617035,254.145386 156.542831,253.923523 
	C164.062958,252.121307 171.511307,250.019516 179.329697,247.915298 
	C176.996109,239.289108 174.807724,231.199677 172.497589,222.660172 
	C166.137100,224.345047 160.096146,225.945282 153.286453,227.763763 
M193.761856,120.804077 
	C194.586197,123.813042 195.410538,126.822006 196.270065,129.959412 
	C204.860687,127.617699 212.981430,125.404076 221.538773,123.071434 
	C219.188965,114.358772 216.975204,106.150604 214.714401,97.767975 
	C205.938812,100.134445 197.850571,102.315567 189.500107,104.567398 
	C190.928238,110.091713 192.213791,115.064491 193.761856,120.804077 
M49.961765,116.328735 
	C49.443794,118.517914 48.925819,120.707100 48.345238,123.160881 
	C56.926506,125.440987 65.057014,127.601326 73.560081,129.860657 
	C75.847389,121.196564 78.021286,112.962044 80.254120,104.504295 
	C71.468964,102.170784 63.366352,100.018570 55.029644,97.804169 
	C53.301422,104.048508 51.710762,109.795807 49.961765,116.328735 
M147.751572,101.278389 
	C145.941513,103.128090 144.131454,104.977798 142.963364,106.171463 
	C149.264145,112.778976 155.077728,118.875572 160.610855,124.678055 
	C166.662994,118.696632 172.660873,112.768822 178.204025,107.290443 
	C172.241150,101.266655 166.229874,95.193947 159.924744,88.824387 
	C156.167053,92.687302 152.224197,96.740570 147.751572,101.278389 
M13.654831,110.945595 
	C13.922042,111.986336 13.964734,113.799088 14.490176,113.951897 
	C22.242065,116.206352 30.058105,118.240211 38.229710,120.425575 
	C40.545418,111.720741 42.729897,103.509216 44.991867,95.006386 
	C36.301186,92.733078 28.075647,90.581444 19.603088,88.365189 
	C17.554998,96.119461 15.700407,103.141129 13.654831,110.945595 
M256.036621,154.908401 
	C255.706573,153.704407 255.634949,151.614212 255.007187,151.431152 
	C247.281876,149.178406 239.475296,147.204391 231.481125,145.103577 
	C229.171112,153.766678 227.005325,161.888870 224.742188,170.376144 
	C233.305237,172.682343 241.531952,174.897964 250.028488,177.186234 
	C252.073380,169.689178 253.985886,162.677521 256.036621,154.908401 
M214.194260,140.361786 
	C208.315155,138.829163 202.436035,137.296524 196.182861,135.666382 
	C193.876907,144.308029 191.686234,152.517685 189.428085,160.980148 
	C198.237808,163.299225 206.329712,165.429352 214.773315,167.652054 
	C217.085480,159.023788 219.256134,150.923630 221.532944,142.427292 
	C219.053680,141.751740 217.009064,141.194611 214.194260,140.361786 
M165.895004,51.818623 
	C158.876648,49.931946 151.858292,48.045269 144.493896,46.065567 
	C142.188766,54.751869 140.004044,62.984413 137.753418,71.465347 
	C146.521057,73.785088 154.633606,75.931503 163.053131,78.159142 
	C165.149246,70.337830 167.239014,63.002602 168.956085,55.581135 
	C169.185089,54.591293 167.525528,53.164497 165.895004,51.818623 
M106.862350,77.646362 
	C115.144951,75.662849 123.427544,73.679337 132.036362,71.617706 
	C129.657898,62.725220 127.482712,54.592716 125.206612,46.082928 
	C116.523804,48.430752 108.282967,50.659065 99.868217,52.934406 
	C102.127434,61.338608 104.237251,69.187042 106.862350,77.646362 
M101.878670,205.252823 
	C101.253616,207.616943 100.628563,209.981064 99.920227,212.660202 
	C108.538040,214.940659 116.789291,217.124130 125.267998,219.367783 
	C127.571068,210.660004 129.713318,202.560272 131.970322,194.026703 
	C123.239143,191.717697 115.021004,189.544357 106.644295,187.329086 
	C104.957191,193.587570 103.492317,199.021652 101.878670,205.252823 
M144.807663,218.937805 
	C153.090668,216.915176 161.373657,214.892548 169.890335,212.812866 
	C167.498932,203.948578 165.310455,195.836456 163.015778,187.330704 
	C154.262222,189.685135 146.057114,191.892044 137.734406,194.130585 
	C140.017624,202.688019 142.110626,210.532486 144.807663,218.937805 
M194.464310,54.757511 
	C200.304092,61.100418 206.143890,67.443329 212.100891,73.913551 
	C218.587006,67.306503 224.490601,61.292835 230.157150,55.520626 
	C224.217697,49.521515 218.203918,43.447342 211.776566,36.955429 
	C206.230988,42.607174 200.543930,48.403103 194.464310,54.757511 
M93.742645,29.855671 
	C94.892471,34.150478 96.042305,38.445286 97.255844,42.978077 
	C105.918633,40.599297 114.137825,38.342327 122.549950,36.032379 
	C120.159439,27.221392 117.962471,19.123751 115.711342,10.826508 
	C107.057175,13.153131 98.954575,15.331470 90.529152,17.596596 
	C91.574348,21.738390 92.502625,25.416874 93.742645,29.855671 
M70.239403,163.807098 
	C73.514267,162.826141 76.789131,161.845200 80.266853,160.803482 
	C77.960075,152.202316 75.787476,144.101486 73.515900,135.631607 
	C64.831902,137.982788 56.622993,140.205353 48.157364,142.497406 
	C50.533382,151.221939 52.734203,159.303146 55.006805,167.647949 
	C60.185387,166.324982 64.810349,165.143463 70.239403,163.807098 
M92.804474,248.609299 
	C100.310768,250.567047 107.817055,252.524796 115.776039,254.600616 
	C118.101868,245.910843 120.267303,237.820297 122.523582,229.390366 
	C113.884834,227.068588 105.769135,224.887390 97.226402,222.591415 
	C95.053879,230.642731 92.948616,238.291321 90.991592,245.977661 
	C90.828300,246.619034 91.664467,247.514877 92.804474,248.609299 
M203.091812,219.405075 
	C206.026855,222.550201 208.961884,225.695343 211.678619,228.606567 
	C218.244980,222.096085 224.298203,216.094360 230.255508,210.187744 
	C224.347214,204.179031 218.438126,198.169510 212.637344,192.270157 
	C206.430954,198.341705 200.299683,204.339767 193.818329,210.680298 
	C196.783813,213.491882 199.664276,216.222870 203.091812,219.405075 
M88.647545,94.166664 
	C93.083862,89.985802 97.520180,85.804939 101.576454,81.982224 
	C94.834236,75.149277 88.920670,69.156120 82.970215,63.125584 
	C77.102470,68.996475 71.141281,74.960869 65.211189,80.894142 
	C71.382019,86.859627 77.532784,92.805710 84.404259,99.448524 
	C85.468758,98.092499 86.808914,96.385315 88.647545,94.166664 
M203.344910,182.624420 
	C197.941193,177.002914 192.537476,171.381409 187.304474,165.937500 
	C180.650940,172.566986 174.585281,178.610718 168.474564,184.699341 
	C169.228821,185.536255 169.983871,186.420837 170.787827,187.258484 
	C175.852814,192.535645 180.928650,197.802414 186.456894,203.546387 
	C192.446838,197.394302 198.023575,191.734573 203.476974,185.958374 
	C204.010498,185.393265 203.784531,184.111115 203.344910,182.624420 
z"/>
<path fill="#242424" opacity="1.000000" stroke="none" 
	d="
M169.131226,82.144638 
	C169.023346,81.204681 168.904831,80.261940 169.318970,79.830566 
	C174.825424,74.094826 180.406570,68.430779 186.070801,62.644974 
	C192.267075,69.193024 198.121445,75.379768 204.066101,81.661926 
	C198.546997,86.984444 192.501266,92.814827 185.820328,99.257774 
	C180.607193,93.909630 174.987701,88.144600 169.131226,82.144638 
z"/>
<path fill="#242424" opacity="1.000000" stroke="none" 
	d="
M77.580566,197.396698 
	C73.225945,193.065384 69.115822,188.974442 65.106354,184.983673 
	C71.404488,178.874100 77.523827,172.937943 83.762886,166.885666 
	C89.012497,172.411865 94.805489,178.510071 100.590210,184.599579 
	C94.976395,190.025452 88.846527,195.950104 81.690323,202.866730 
	C80.770172,201.621765 79.297615,199.629395 77.580566,197.396698 
z"/>
<path fill="#232323" opacity="1.000000" stroke="none" 
	d="
M178.076736,22.172405 
	C176.188736,29.250753 174.377670,35.929367 172.494736,42.873013 
	C164.022079,40.622108 155.903793,38.465351 147.201355,36.153397 
	C149.463440,27.651163 151.646179,19.447187 153.954178,10.772416 
	C162.436401,13.042285 170.514282,15.203952 179.087479,17.498169 
	C178.754440,19.022648 178.454056,20.397659 178.076736,22.172405 
z"/>
<path fill="#242424" opacity="1.000000" stroke="none" 
	d="
M54.826866,71.344574 
	C49.311947,65.998253 44.047077,60.917984 38.765678,55.821766 
	C45.287277,49.519062 51.362915,43.647350 57.578342,37.640541 
	C62.988880,43.288956 68.891891,49.451496 75.490173,56.339878 
	C70.341675,61.255165 64.785789,66.698067 59.005917,71.891716 
	C58.327896,72.500961 56.416527,71.737648 54.826866,71.344574 
z"/>
<path fill="#232323" opacity="1.000000" stroke="none" 
	d="
M66.255394,200.744568 
	C69.556274,204.016922 72.613434,207.031921 75.687065,210.063156 
	C69.417160,216.277832 63.433388,222.208878 57.506298,228.083755 
	C51.711216,222.072998 45.778397,215.919373 39.954449,209.878677 
	C45.449409,204.440613 51.549824,198.403381 57.940346,192.079025 
	C60.503208,194.748856 63.257442,197.618042 66.255394,200.744568 
z"/>
<path fill="#232323" opacity="1.000000" stroke="none" 
	d="
M39.789421,171.892609 
	C33.014008,173.672470 26.629658,175.368500 19.707836,177.207306 
	C17.441994,168.880539 15.245131,160.807251 12.825459,151.915176 
	C21.235628,149.662796 29.577082,147.428833 38.217701,145.114746 
	C40.514614,153.675964 42.691326,161.789139 44.949028,170.204208 
	C43.219776,170.786087 41.700134,171.297440 39.789421,171.892609 
z"/>
<path fill="#242424" opacity="1.000000" stroke="none" 
	d="
M230.701401,117.367432 
	C228.701508,109.921516 226.802689,102.873543 224.721756,95.149605 
	C233.084854,92.897324 241.296814,90.685745 250.036926,88.331932 
	C252.329910,96.813499 254.522003,104.921829 256.863281,113.582077 
	C249.013214,115.731071 241.421265,117.893616 233.760773,119.777496 
	C232.986450,119.967926 231.798477,118.476364 230.701401,117.367432 
z"/>
<path fill="#222222" opacity="1.000000" stroke="none" 
	d="
M153.670822,227.654633 
	C160.096146,225.945282 166.137100,224.345047 172.497589,222.660172 
	C174.807724,231.199677 176.996109,239.289108 179.329697,247.915298 
	C171.511307,250.019516 164.062958,252.121307 156.542831,253.923523 
	C155.617035,254.145386 153.554108,252.987198 153.295227,252.097122 
	C151.134018,244.665878 149.272110,237.147614 147.260223,229.426590 
	C149.500061,228.808548 151.393265,228.286163 153.670822,227.654633 
z"/>
<path fill="#242424" opacity="1.000000" stroke="none" 
	d="
M193.630600,120.420670 
	C192.213791,115.064491 190.928238,110.091713 189.500107,104.567398 
	C197.850571,102.315567 205.938812,100.134445 214.714401,97.767975 
	C216.975204,106.150604 219.188965,114.358772 221.538773,123.071434 
	C212.981430,125.404076 204.860687,127.617699 196.270065,129.959412 
	C195.410538,126.822006 194.586197,123.813042 193.630600,120.420670 
z"/>
<path fill="#232323" opacity="1.000000" stroke="none" 
	d="
M50.040932,115.935913 
	C51.710762,109.795807 53.301422,104.048508 55.029644,97.804169 
	C63.366352,100.018570 71.468964,102.170784 80.254120,104.504295 
	C78.021286,112.962044 75.847389,121.196564 73.560081,129.860657 
	C65.057014,127.601326 56.926506,125.440987 48.345238,123.160881 
	C48.925819,120.707100 49.443794,118.517914 50.040932,115.935913 
z"/>
<path fill="#222222" opacity="1.000000" stroke="none" 
	d="
M148.016449,101.036110 
	C152.224197,96.740570 156.167053,92.687302 159.924744,88.824387 
	C166.229874,95.193947 172.241150,101.266655 178.204025,107.290443 
	C172.660873,112.768822 166.662994,118.696632 160.610855,124.678055 
	C155.077728,118.875572 149.264145,112.778976 142.963364,106.171463 
	C144.131454,104.977798 145.941513,103.128090 148.016449,101.036110 
z"/>
<path fill="#242424" opacity="1.000000" stroke="none" 
	d="
M13.750322,110.554199 
	C15.700407,103.141129 17.554998,96.119461 19.603088,88.365189 
	C28.075647,90.581444 36.301186,92.733078 44.991867,95.006386 
	C42.729897,103.509216 40.545418,111.720741 38.229710,120.425575 
	C30.058105,118.240211 22.242065,116.206352 14.490176,113.951897 
	C13.964734,113.799088 13.922042,111.986336 13.750322,110.554199 
z"/>
<path fill="#232323" opacity="1.000000" stroke="none" 
	d="
M255.967499,155.287125 
	C253.985886,162.677521 252.073380,169.689178 250.028488,177.186234 
	C241.531952,174.897964 233.305237,172.682343 224.742188,170.376144 
	C227.005325,161.888870 229.171112,153.766678 231.481125,145.103577 
	C239.475296,147.204391 247.281876,149.178406 255.007187,151.431152 
	C255.634949,151.614212 255.706573,153.704407 255.967499,155.287125 
z"/>
<path fill="#222222" opacity="1.000000" stroke="none" 
	d="
M214.579346,140.499634 
	C217.009064,141.194611 219.053680,141.751740 221.532944,142.427292 
	C219.256134,150.923630 217.085480,159.023788 214.773315,167.652054 
	C206.329712,165.429352 198.237808,163.299225 189.428085,160.980148 
	C191.686234,152.517685 193.876907,144.308029 196.182861,135.666382 
	C202.436035,137.296524 208.315155,138.829163 214.579346,140.499634 
z"/>
<path fill="#232323" opacity="1.000000" stroke="none" 
	d="
M166.317780,51.879341 
	C167.525528,53.164497 169.185089,54.591293 168.956085,55.581135 
	C167.239014,63.002602 165.149246,70.337830 163.053131,78.159142 
	C154.633606,75.931503 146.521057,73.785088 137.753418,71.465347 
	C140.004044,62.984413 142.188766,54.751869 144.493896,46.065567 
	C151.858292,48.045269 158.876648,49.931946 166.317780,51.879341 
z"/>
<path fill="#232323" opacity="1.000000" stroke="none" 
	d="
M106.604706,77.340919 
	C104.237251,69.187042 102.127434,61.338608 99.868217,52.934406 
	C108.282967,50.659065 116.523804,48.430752 125.206612,46.082928 
	C127.482712,54.592716 129.657898,62.725220 132.036362,71.617706 
	C123.427544,73.679337 115.144951,75.662849 106.604706,77.340919 
z"/>
<path fill="#232323" opacity="1.000000" stroke="none" 
	d="
M101.953056,204.854279 
	C103.492317,199.021652 104.957191,193.587570 106.644295,187.329086 
	C115.021004,189.544357 123.239143,191.717697 131.970322,194.026703 
	C129.713318,202.560272 127.571068,210.660004 125.267998,219.367783 
	C116.789291,217.124130 108.538040,214.940659 99.920227,212.660202 
	C100.628563,209.981064 101.253616,207.616943 101.953056,204.854279 
z"/>
<path fill="#232323" opacity="1.000000" stroke="none" 
	d="
M144.505646,218.657379 
	C142.110626,210.532486 140.017624,202.688019 137.734406,194.130585 
	C146.057114,191.892044 154.262222,189.685135 163.015778,187.330704 
	C165.310455,195.836456 167.498932,203.948578 169.890335,212.812866 
	C161.373657,214.892548 153.090668,216.915176 144.505646,218.657379 
z"/>
<path fill="#242223" opacity="1.000000" stroke="none" 
	d="
M194.660583,54.478271 
	C200.543930,48.403103 206.230988,42.607174 211.776566,36.955429 
	C218.203918,43.447342 224.217697,49.521515 230.157150,55.520626 
	C224.490601,61.292835 218.587006,67.306503 212.100891,73.913551 
	C206.143890,67.443329 200.304092,61.100418 194.660583,54.478271 
z"/>
<path fill="#222222" opacity="1.000000" stroke="none" 
	d="
M93.586777,29.475513 
	C92.502625,25.416874 91.574348,21.738390 90.529152,17.596596 
	C98.954575,15.331470 107.057175,13.153131 115.711342,10.826508 
	C117.962471,19.123751 120.159439,27.221392 122.549950,36.032379 
	C114.137825,38.342327 105.918633,40.599297 97.255844,42.978077 
	C96.042305,38.445286 94.892471,34.150478 93.586777,29.475513 
z"/>
<path fill="#232323" opacity="1.000000" stroke="none" 
	d="
M69.837357,163.884521 
	C64.810349,165.143463 60.185387,166.324982 55.006805,167.647949 
	C52.734203,159.303146 50.533382,151.221939 48.157364,142.497406 
	C56.622993,140.205353 64.831902,137.982788 73.515900,135.631607 
	C75.787476,144.101486 77.960075,152.202316 80.266853,160.803482 
	C76.789131,161.845200 73.514267,162.826141 69.837357,163.884521 
z"/>
<path fill="#232323" opacity="1.000000" stroke="none" 
	d="
M92.420372,248.450897 
	C91.664467,247.514877 90.828300,246.619034 90.991592,245.977661 
	C92.948616,238.291321 95.053879,230.642731 97.226402,222.591415 
	C105.769135,224.887390 113.884834,227.068588 122.523582,229.390366 
	C120.267303,237.820297 118.101868,245.910843 115.776039,254.600616 
	C107.817055,252.524796 100.310768,250.567047 92.420372,248.450897 
z"/>
<path fill="#222222" opacity="1.000000" stroke="none" 
	d="
M202.818268,219.179459 
	C199.664276,216.222870 196.783813,213.491882 193.818329,210.680298 
	C200.299683,204.339767 206.430954,198.341705 212.637344,192.270157 
	C218.438126,198.169510 224.347214,204.179031 230.255508,210.187744 
	C224.298203,216.094360 218.244980,222.096085 211.678619,228.606567 
	C208.961884,225.695343 206.026855,222.550201 202.818268,219.179459 
z"/>
<path fill="#222222" opacity="1.000000" stroke="none" 
	d="
M88.398315,94.422394 
	C86.808914,96.385315 85.468758,98.092499 84.404259,99.448524 
	C77.532784,92.805710 71.382019,86.859627 65.211189,80.894142 
	C71.141281,74.960869 77.102470,68.996475 82.970215,63.125584 
	C88.920670,69.156120 94.834236,75.149277 101.576454,81.982224 
	C97.520180,85.804939 93.083862,89.985802 88.398315,94.422394 
z"/>
<path fill="#222222" opacity="1.000000" stroke="none" 
	d="
M203.627991,182.893097 
	C203.784531,184.111115 204.010498,185.393265 203.476974,185.958374 
	C198.023575,191.734573 192.446838,197.394302 186.456894,203.546387 
	C180.928650,197.802414 175.852814,192.535645 170.787827,187.258484 
	C169.983871,186.420837 169.228821,185.536255 168.474564,184.699341 
	C174.585281,178.610718 180.650940,172.566986 187.304474,165.937500 
	C192.537476,171.381409 197.941193,177.002914 203.627991,182.893097 
z"/>
</svg>